<svg width="36" height="36" viewBox="0 0 36 36" fill="none" xmlns="http://www.w3.org/2000/svg">
    <path
        d="M19 19.475H20.4286L21 16.875H19V15.575C19 14.9055 19 14.275 20.1429 14.275H21V12.091C20.8137 12.0631 20.1103 12 19.3674 12C17.816 12 16.7143 13.077 16.7143 15.055V16.875H15V19.475H16.7143V25H19V19.475Z"
        fill="#D4D3D4" />
    <path
        d="M18 0C14.4399 0 10.9598 1.05568 7.99974 3.03355C5.03966 5.01141 2.73255 7.82263 1.37018 11.1117C0.00779912 14.4008 -0.348661 18.02 0.345873 21.5116C1.04041 25.0033 2.75474 28.2106 5.27208 30.7279C7.78943 33.2453 10.9967 34.9596 14.4884 35.6541C17.98 36.3487 21.5992 35.9922 24.8883 34.6298C28.1774 33.2674 30.9886 30.9603 32.9665 28.0003C34.9443 25.0402 36 21.5601 36 18C35.995 13.2276 34.0969 8.6522 30.7224 5.27764C27.3478 1.90308 22.7724 0.00503969 18 0ZM18 33.2308C14.9876 33.2308 12.0429 32.3375 9.53824 30.6639C7.03356 28.9903 5.08139 26.6116 3.92861 23.8286C2.77583 21.0455 2.47421 17.9831 3.06189 15.0286C3.64958 12.0741 5.10017 9.36028 7.23023 7.23022C9.36029 5.10016 12.0742 3.64957 15.0286 3.06188C17.9831 2.4742 21.0455 2.77582 23.8286 3.9286C26.6116 5.08138 28.9903 7.03355 30.6639 9.53824C32.3375 12.0429 33.2308 14.9876 33.2308 18C33.2262 22.038 31.6201 25.9094 28.7647 28.7647C25.9094 31.62 22.038 33.2262 18 33.2308Z"
        fill="#D4D3D4" />
</svg>