<svg width="22" height="22" viewBox="0 0 22 22" fill="none" xmlns="http://www.w3.org/2000/svg">
    <path
        d="M1.14 5.2668C1.14 7.0596 1.7388 8.3532 2.9184 9.1128C3.8856 9.7368 5.0064 9.8304 5.5896 9.8304C5.7312 9.8304 5.8452 9.8232 5.9244 9.8184C5.9244 9.8184 5.7396 11.0232 6.6324 12.2136H6.5916C5.0448 12.2136 0 12.5364 0 16.686C0 20.9052 4.6332 21.12 5.5632 21.12C5.6364 21.12 5.6796 21.1176 5.6796 21.1176C5.6892 21.1176 5.7552 21.12 5.8692 21.12C6.4656 21.12 8.0076 21.0456 9.4392 20.3484C11.2968 19.4484 12.2388 17.8776 12.2388 15.6864C12.2388 13.5696 10.8036 12.3096 9.756 11.388C9.1164 10.8252 8.5632 10.3404 8.5632 9.8688C8.5632 9.3888 8.9676 9.0276 9.4776 8.5704C10.3044 7.8324 11.0844 6.78 11.0844 4.7904C11.0844 3.042 10.8576 1.8672 9.4596 1.122C9.6048 1.0476 10.1208 0.9936 10.3752 0.9576C11.1324 0.8544 12.24 0.7368 12.24 0.1188V0H6.7212C6.666 0.0024 1.14 0.2064 1.14 5.2668ZM10.0488 16.0824C10.1544 17.7696 8.7108 19.014 6.5424 19.1712C4.3404 19.3332 2.5284 18.342 2.4228 16.656C2.3712 15.8448 2.7276 15.0528 3.4248 14.4204C4.1316 13.7808 5.1024 13.3848 6.1584 13.3068C6.2832 13.2996 6.4068 13.2924 6.5304 13.2924C8.5692 13.2936 9.9492 14.4912 10.0488 16.0824ZM8.6076 4.1112C9.1488 6.0168 8.3316 8.0064 7.0284 8.3748C6.87838 8.4166 6.72333 8.4376 6.5676 8.4372C5.3748 8.4372 4.1928 7.23 3.7536 5.5656C3.5088 4.6344 3.5292 3.816 3.81 3.0312C4.0848 2.2572 4.5816 1.7376 5.2056 1.5612C5.3556 1.5192 5.5104 1.4976 5.6676 1.4976C7.1076 1.4976 8.034 2.0952 8.6076 4.1112ZM17.9532 8.16V4.56H15.5532V8.16H11.9532V10.56H15.5532V14.16H17.9532V10.56H21.5532V8.16H17.9532Z"
        fill="#484848" />
</svg>