<svg width="36" height="36" viewBox="0 0 36 36" fill="none" xmlns="http://www.w3.org/2000/svg">
    <path
        d="M15.1083 11H21.0583C23.325 11 25.1667 12.8417 25.1667 15.1083V21.0583C25.1667 22.1479 24.7338 23.1929 23.9634 23.9634C23.1929 24.7338 22.1479 25.1667 21.0583 25.1667H15.1083C12.8417 25.1667 11 23.325 11 21.0583V15.1083C11 14.0187 11.4328 12.9738 12.2033 12.2033C12.9738 11.4328 14.0187 11 15.1083 11ZM14.9667 12.4167C14.2904 12.4167 13.6418 12.6853 13.1635 13.1635C12.6853 13.6418 12.4167 14.2904 12.4167 14.9667V21.2C12.4167 22.6096 13.5571 23.75 14.9667 23.75H21.2C21.8763 23.75 22.5249 23.4813 23.0031 23.0031C23.4813 22.5249 23.75 21.8763 23.75 21.2V14.9667C23.75 13.5571 22.6096 12.4167 21.2 12.4167H14.9667ZM21.8021 13.4792C22.0369 13.4792 22.2621 13.5725 22.4282 13.7385C22.5942 13.9045 22.6875 14.1298 22.6875 14.3646C22.6875 14.5994 22.5942 14.8246 22.4282 14.9907C22.2621 15.1567 22.0369 15.25 21.8021 15.25C21.5673 15.25 21.342 15.1567 21.176 14.9907C21.01 14.8246 20.9167 14.5994 20.9167 14.3646C20.9167 14.1298 21.01 13.9045 21.176 13.7385C21.342 13.5725 21.5673 13.4792 21.8021 13.4792ZM18.0833 14.5417C19.0226 14.5417 19.9235 14.9148 20.5877 15.579C21.2519 16.2432 21.625 17.144 21.625 18.0833C21.625 19.0226 21.2519 19.9235 20.5877 20.5877C19.9235 21.2519 19.0226 21.625 18.0833 21.625C17.144 21.625 16.2432 21.2519 15.579 20.5877C14.9148 19.9235 14.5417 19.0226 14.5417 18.0833C14.5417 17.144 14.9148 16.2432 15.579 15.579C16.2432 14.9148 17.144 14.5417 18.0833 14.5417ZM18.0833 15.9583C17.5197 15.9583 16.9792 16.1822 16.5807 16.5807C16.1822 16.9792 15.9583 17.5197 15.9583 18.0833C15.9583 18.6469 16.1822 19.1874 16.5807 19.5859C16.9792 19.9845 17.5197 20.2083 18.0833 20.2083C18.6469 20.2083 19.1874 19.9845 19.5859 19.5859C19.9845 19.1874 20.2083 18.6469 20.2083 18.0833C20.2083 17.5197 19.9845 16.9792 19.5859 16.5807C19.1874 16.1822 18.6469 15.9583 18.0833 15.9583Z"
        fill="#D4D3D4" />
    <path
        d="M18 0C14.4399 0 10.9598 1.05568 7.99974 3.03355C5.03966 5.01141 2.73255 7.82263 1.37018 11.1117C0.00779912 14.4008 -0.348661 18.02 0.345873 21.5116C1.04041 25.0033 2.75474 28.2106 5.27208 30.7279C7.78943 33.2453 10.9967 34.9596 14.4884 35.6541C17.98 36.3487 21.5992 35.9922 24.8883 34.6298C28.1774 33.2674 30.9886 30.9603 32.9665 28.0003C34.9443 25.0402 36 21.5601 36 18C35.995 13.2276 34.0969 8.6522 30.7224 5.27764C27.3478 1.90308 22.7724 0.00503969 18 0ZM18 33.2308C14.9876 33.2308 12.0429 32.3375 9.53824 30.6639C7.03356 28.9903 5.08139 26.6116 3.92861 23.8286C2.77583 21.0455 2.47421 17.9831 3.06189 15.0286C3.64958 12.0741 5.10017 9.36028 7.23023 7.23022C9.36029 5.10016 12.0742 3.64957 15.0286 3.06188C17.9831 2.4742 21.0455 2.77582 23.8286 3.9286C26.6116 5.08138 28.9903 7.03355 30.6639 9.53824C32.3375 12.0429 33.2308 14.9876 33.2308 18C33.2262 22.038 31.6201 25.9094 28.7647 28.7647C25.9094 31.62 22.038 33.2262 18 33.2308Z"
        fill="#D4D3D4" />
</svg>