<svg width="18" height="24" viewBox="0 0 18 24" fill="none" xmlns="http://www.w3.org/2000/svg">
    <path
        d="M9.5625 0C4.75275 0 0 3.20625 0 8.3955C0 11.6955 1.85625 13.5705 2.98125 13.5705C3.4455 13.5705 3.7125 12.2767 3.7125 11.9115C3.7125 11.4757 2.60175 10.5472 2.60175 8.733C2.60175 4.96425 5.4705 2.292 9.183 2.292C12.375 2.292 14.7375 4.10625 14.7375 7.43925C14.7375 9.9285 13.7393 14.5972 10.5045 14.5972C9.3375 14.5972 8.3385 13.7535 8.3385 12.5445C8.3385 10.7722 9.576 9.057 9.576 7.2285C9.576 4.12575 5.17425 4.68825 5.17425 8.43825C5.17425 9.22575 5.2725 10.0973 5.62425 10.815C4.977 13.5998 3.6555 17.748 3.6555 20.6168C3.6555 21.5025 3.78225 22.3747 3.86625 23.2605C4.02525 23.439 3.94575 23.4202 4.1895 23.331C6.552 20.0962 6.468 19.464 7.53675 15.231C8.1135 16.3283 9.60375 16.9185 10.785 16.9185C15.7627 16.9185 17.9993 12.0667 17.9993 7.6935C17.9993 3.039 13.977 0.0015 9.56175 0.0015L9.5625 0Z"
        fill="#484848" />
</svg>