<svg width="36" height="36" viewBox="0 0 36 36" fill="none" xmlns="http://www.w3.org/2000/svg">
    <path
        d="M28 13.5399C27.5544 14.2028 27.0078 14.7679 26.3601 15.2351C26.3665 15.3604 26.3697 15.5021 26.3697 15.6601C26.3697 16.5378 26.2418 17.4165 25.9859 18.2963C25.73 19.1762 25.3392 20.0183 24.8134 20.8228C24.2876 21.6273 23.6612 22.34 22.9344 22.9609C22.2075 23.5818 21.3338 24.0769 20.3132 24.4461C19.2926 24.8154 18.1988 25 17.0318 25C15.2104 25 13.5332 24.5082 12 23.5246C12.2721 23.5549 12.5331 23.57 12.783 23.57C14.3045 23.57 15.6635 23.1013 16.86 22.1637C16.1505 22.1507 15.5152 21.9323 14.9539 21.5084C14.3926 21.0846 14.0064 20.5429 13.7951 19.8836C14.0039 19.9233 14.21 19.9432 14.4134 19.9432C14.7061 19.9432 14.9941 19.9051 15.2774 19.8287C14.5203 19.677 13.8922 19.2998 13.3932 18.6972C12.8941 18.0945 12.6446 17.3989 12.6446 16.6104V16.5697C13.1093 16.8271 13.605 16.964 14.1317 16.9804C13.6832 16.6814 13.3276 16.2914 13.0649 15.8104C12.8022 15.3295 12.6708 14.8091 12.6708 14.2491C12.6708 13.6585 12.8188 13.1086 13.1147 12.5993C13.938 13.6099 14.9357 14.4176 16.1076 15.0224C17.2796 15.6272 18.5369 15.9631 19.8795 16.0301C19.8223 15.7914 19.7936 15.5423 19.7935 15.2828C19.7935 14.3767 20.114 13.6031 20.7552 12.9618C21.3963 12.3206 22.1698 12 23.0757 12C24.0241 12 24.8229 12.3454 25.4722 13.0362C26.2141 12.8893 26.9087 12.6234 27.5561 12.2387C27.3066 13.0238 26.826 13.6295 26.1143 14.0557C26.7685 13.9779 27.397 13.806 28 13.5399H28Z"
        fill="#D4D3D4" />
    <path
        d="M18 0C14.4399 0 10.9598 1.05568 7.99974 3.03355C5.03966 5.01141 2.73255 7.82263 1.37018 11.1117C0.00779912 14.4008 -0.348661 18.02 0.345873 21.5116C1.04041 25.0033 2.75474 28.2106 5.27208 30.7279C7.78943 33.2453 10.9967 34.9596 14.4884 35.6541C17.98 36.3487 21.5992 35.9922 24.8883 34.6298C28.1774 33.2674 30.9886 30.9603 32.9665 28.0003C34.9443 25.0402 36 21.5601 36 18C35.995 13.2276 34.0969 8.6522 30.7224 5.27764C27.3478 1.90308 22.7724 0.00503969 18 0ZM18 33.2308C14.9876 33.2308 12.0429 32.3375 9.53824 30.6639C7.03356 28.9903 5.08139 26.6116 3.92861 23.8286C2.77583 21.0455 2.47421 17.9831 3.06189 15.0286C3.64958 12.0741 5.10017 9.36028 7.23023 7.23022C9.36029 5.10016 12.0742 3.64957 15.0286 3.06188C17.9831 2.4742 21.0455 2.77582 23.8286 3.9286C26.6116 5.08138 28.9903 7.03355 30.6639 9.53824C32.3375 12.0429 33.2308 14.9876 33.2308 18C33.2262 22.038 31.6201 25.9094 28.7647 28.7647C25.9094 31.62 22.038 33.2262 18 33.2308Z"
        fill="#D4D3D4" />
</svg>