<svg width="24" height="21" viewBox="0 0 24 21" fill="none" xmlns="http://www.w3.org/2000/svg">
    <path
        d="M23.9767 4.81219C23.871 7.15219 22.2375 10.3592 19.0815 14.4212C15.8152 18.6714 13.0583 20.7932 10.7925 20.7932C9.3825 20.7932 8.21475 19.5002 7.2375 16.9142L5.31975 9.79594C4.602 7.21369 3.8355 5.92069 3.012 5.92069C2.832 5.92069 2.20275 6.29569 1.12875 7.04944L0 5.59219C1.17472 4.5594 2.3415 3.51762 3.50025 2.46694C5.07825 1.09594 6.26625 0.381188 7.05525 0.306938C8.922 0.126938 10.0702 1.40869 10.5045 4.14319C10.9695 7.09594 11.2898 8.93194 11.4735 9.65119C12.0128 12.0999 12.6052 13.3269 13.2502 13.3269C13.7505 13.3269 14.5042 12.5297 15.516 10.9397C16.5202 9.34969 17.055 8.14294 17.1248 7.31044C17.2695 5.94319 16.7295 5.25169 15.5115 5.25169C14.9377 5.25169 14.3438 5.37394 13.7333 5.64244C14.9213 1.77544 17.1675 -0.115313 20.4952 0.0054374C22.968 0.0646874 24.1245 1.66969 23.9872 4.80244L23.9767 4.81219Z"
        fill="#484848" />
</svg>