<svg width="268" height="95" viewBox="0 0 268 95" fill="none" xmlns="http://www.w3.org/2000/svg">
    <path
        d="M1.12306 34.6615C0.910642 26.1289 5.27696 18.1135 14.222 10.6151L31.1931 21.3289C23.7434 26.2658 20.085 31.4053 20.218 36.7474C20.2734 38.9733 21.0745 41.3291 22.6212 43.8148C24.2403 46.2245 25.8593 48.6341 27.4784 51.0438C29.0975 53.4535 29.9338 55.7342 29.9873 57.8858C30.2053 66.6409 24.2903 73.5813 12.2422 78.707L7.75491 72.9165C10.6821 71.2103 12.6837 69.6014 13.7597 68.0897C14.908 66.5021 15.4591 64.7808 15.4129 62.9259C15.3668 61.071 14.6111 59.0482 13.146 56.8574C11.679 54.5924 10.0692 52.5537 8.31649 50.7413C6.56196 48.8547 4.94382 46.4821 3.46206 43.6236C1.97846 40.6909 1.19879 37.7035 1.12306 34.6615ZM45.7229 75.8689C44.6841 75.8948 43.9413 75.8762 43.4942 75.8131C41.3817 74.4551 39.6605 72.4191 38.3309 69.7053C37.0754 66.9896 36.4052 63.9253 36.3202 60.5122C36.2334 57.025 37.6156 54.3922 40.4667 52.6136C43.3902 50.7591 48.7843 49.7339 56.6491 49.5381C59.5427 49.466 62.6265 49.5749 65.9003 49.8646L65.6279 47.8668C65.3443 45.4239 64.1463 43.5235 62.0337 42.1655C59.9211 40.8075 57.2325 40.1691 53.9679 40.2504C50.7775 40.3298 47.612 41.4109 44.4715 43.4936L40.1379 30.4607C45.2781 28.1797 51.187 26.9561 57.8646 26.7898C64.5422 26.6236 69.848 28.0135 73.7819 30.9594C77.7881 33.8294 79.8707 38.4548 80.0295 44.8356C80.0665 46.3195 80.0209 47.4714 79.8928 48.2912L78.0705 73.5046L68.9639 74.5108L67.3014 61.4114L66.6336 61.428C64.6651 65.8573 61.8565 69.3423 58.2076 71.8832C54.633 74.4221 50.4714 75.7507 45.7229 75.8689ZM66.3312 53.7515L61.5428 53.7594C57.5362 53.8591 54.24 54.1639 51.6543 54.6737C50.8806 56.4006 50.5104 57.9317 50.5436 59.2673C50.5769 60.6028 50.7576 61.8975 51.0858 63.1514C51.4863 64.3293 51.9138 65.0982 52.3682 65.4581C59.6117 64.1642 64.266 60.262 66.3312 53.7515ZM111.11 3.74857L114.837 19.2466C109.32 21.3142 105.47 24.7138 103.286 29.4454L118.292 28.2923L118.107 34.3105L109.126 35.8704L105.591 72.8194L96.5959 73.8229L92.0532 38.9681L84.4016 40.2722L83.5011 30.9402L91.7285 30.4013C91.9705 22.2287 93.9671 15.9427 97.7181 11.5433C101.467 7.06967 105.931 4.47144 111.11 3.74857ZM130.814 73.7506C129.775 73.7765 129.032 73.7578 128.585 73.6947C126.472 72.3367 124.751 70.3008 123.422 67.5869C122.166 64.8713 121.496 61.8069 121.411 58.3939C121.324 54.9067 122.706 52.2738 125.557 50.4953C128.481 48.6407 133.875 47.6155 141.74 47.4197C144.633 47.3477 147.717 47.4565 150.991 47.7462L150.719 45.7485C150.435 43.3056 149.237 41.4051 147.124 40.0471C145.012 38.6891 142.323 38.0507 139.059 38.132C135.868 38.2114 132.703 39.2925 129.562 41.3752L125.229 28.3423C130.369 26.0613 136.278 24.8377 142.955 24.6715C149.633 24.5053 154.939 25.8951 158.873 28.8411C162.879 31.711 164.961 36.3364 165.12 42.7173C165.157 44.2012 165.112 45.3531 164.984 46.1729L163.161 71.3862L154.055 72.3925L152.392 59.2931L151.724 59.3097C149.756 63.739 146.947 67.224 143.298 69.7648C139.724 72.3038 135.562 73.6324 130.814 73.7506ZM151.422 51.6332L146.633 51.641C142.627 51.7408 139.331 52.0456 136.745 52.5554C135.971 54.2822 135.601 55.8134 135.634 57.1489C135.668 58.4844 135.848 59.7792 136.176 61.0331C136.577 62.211 137.004 62.9799 137.459 63.3398C144.702 62.0458 149.357 58.1436 151.422 51.6332ZM202.051 39.7933C197.896 39.8968 194.779 41.4221 192.699 44.3693C190.694 47.3146 189.268 52.6584 188.421 60.4007L187.454 70.7814L178.459 71.7849L172.771 26.7133L192.173 23.2235L190.644 37.8501L191.311 37.8334C195.948 27.2499 202.005 21.531 209.482 20.6767L207.404 40.1055C205.171 39.8641 203.387 39.7601 202.051 39.7933ZM218.222 70.795L212.534 25.7234L231.938 22.3449L227.217 69.7915L218.222 70.795ZM215.067 15.6377C213.392 13.9718 212.526 11.9889 212.469 9.6888C212.41 7.31453 213.176 5.29093 214.768 3.61799C216.434 1.9432 218.417 1.07717 220.717 1.01991C223.017 0.96265 225.003 1.72985 226.676 3.32153C228.423 4.91135 229.326 6.89339 229.386 9.26766C229.443 11.5677 228.639 13.5923 226.975 15.3412C225.384 17.0142 223.438 17.8793 221.138 17.9365C218.838 17.9938 216.814 17.2275 215.067 15.6377Z"
        fill="#DE8703" />
    <path
        d="M196.065 38.5007C196.326 38.8263 196.442 39.236 196.412 39.7301C196.394 39.9551 196.271 40.2372 196.044 40.5763C195.856 40.8662 195.709 41.1289 195.603 41.3644C195.205 41.7684 194.954 42.0881 194.848 42.3236C194.781 42.51 194.643 42.6601 194.433 42.7742C193.723 43.1709 193.125 43.398 192.642 43.4555C192.158 43.513 191.54 43.5643 190.788 43.6093C190.26 43.672 189.867 43.7411 189.609 43.8164C189.394 43.8866 189.031 44.0189 188.519 44.2136C188.348 44.2785 188.222 44.3381 188.139 44.3926C188.056 44.447 187.908 44.5093 187.693 44.5794C187.484 44.6934 187.269 44.7636 187.049 44.7897C186.874 44.8106 186.728 44.8949 186.611 45.0425C186.386 45.0247 186.254 45.0404 186.216 45.0895C186.177 45.1387 186.053 45.2204 185.844 45.3344C185.541 45.415 185.327 45.4851 185.2 45.5448C185.117 45.5992 184.993 45.6808 184.828 45.7897C184.685 45.7175 184.51 45.7384 184.3 45.8525C184.086 45.9226 183.871 45.9927 183.657 46.0628C183.315 46.1926 183.015 46.2951 182.757 46.3705C182.542 46.4406 182.333 46.5547 182.129 46.7127C182.101 46.8498 182.05 46.9896 181.978 47.1319C181.901 47.2303 181.892 47.3428 181.951 47.4695C181.724 47.8086 181.546 48.1864 181.418 48.603C181.289 49.0195 181.086 49.378 180.81 49.6784C180.704 49.9139 180.601 50.1714 180.501 50.4508C180.395 50.6863 180.243 50.9051 180.044 51.1071C179.998 51.4692 179.88 51.7953 179.692 52.0852C179.542 52.3259 179.395 52.5886 179.251 52.8733C178.934 53.5798 178.662 54.4815 178.436 55.5784C178.204 56.6313 177.93 57.511 177.613 58.2175C177.505 58.81 177.323 59.3443 177.068 59.8205C176.807 60.2528 176.596 60.7238 176.434 61.2335C176.26 62.77 175.941 64.2123 175.477 65.5604C175.014 66.9085 174.577 68.2979 174.168 69.7287C174.005 70.2384 173.886 70.5425 173.808 70.6409C173.769 70.6901 173.758 70.7806 173.774 70.9125C173.58 71.1584 173.438 71.4651 173.348 71.8325C173.297 72.1507 173.223 72.4715 173.128 72.7949C173.1 72.932 172.97 73.1481 172.737 73.4433C172.675 73.6735 172.616 73.9258 172.56 74.2C172.503 74.4742 172.444 74.7265 172.382 74.9568C172.271 75.1483 172.226 75.332 172.247 75.5078C172.268 75.6837 172.24 75.8208 172.162 75.9192C171.956 76.4341 171.861 76.7575 171.877 76.8894C171.892 77.0213 171.886 77.1558 171.858 77.2929C171.59 78.0381 171.435 78.6138 171.395 79.0199C171.348 79.382 171.234 79.7301 171.051 80.0639C171.077 80.2837 171.056 80.4868 170.989 80.6731C170.922 80.8594 170.855 81.0457 170.788 81.232C170.918 81.5732 170.899 81.9767 170.732 82.4425C170.559 82.8643 170.406 83.2615 170.272 83.6341C170.053 84.4181 169.871 84.9524 169.727 85.2371C169.577 85.4778 169.474 85.7353 169.418 86.0095C169.26 86.5632 169.107 86.9604 168.957 87.2011C168.846 87.3926 168.738 87.6062 168.632 87.8417C168.47 88.3514 168.305 88.8391 168.138 89.3049C168.014 89.7654 167.844 90.2092 167.627 90.6362C167.648 90.8121 167.672 91.0099 167.698 91.2297C167.719 91.4055 167.718 91.584 167.695 91.7651C167.633 91.9953 167.505 92.2335 167.312 92.4794C167.167 92.7641 167.032 92.9363 166.905 92.9959C166.466 93.0482 166.16 93.1068 165.99 93.1717C165.824 93.2806 165.654 93.3454 165.478 93.3664C165.248 93.3046 165.012 93.1989 164.771 93.0492C164.531 92.8995 164.312 92.7472 164.115 92.5923C163.564 92.0783 163.069 91.6691 162.632 91.3644C162.189 91.0159 161.909 90.5365 161.792 89.9263C161.711 89.6238 161.719 89.3108 161.814 88.9874C161.909 88.664 162.127 88.4374 162.469 88.3076C162.832 87.239 163.081 86.3399 163.218 85.6104C163.398 84.8756 163.6 84.1382 163.824 83.3983C163.891 83.212 163.938 83.0502 163.967 82.9131C164.034 82.7268 164.098 82.5185 164.16 82.2883C164.222 82.058 164.267 81.8743 164.295 81.7372C164.318 81.5561 164.36 81.3505 164.422 81.1202C164.512 80.7528 164.627 80.4048 164.766 80.0762C164.905 79.7475 165.064 79.3943 165.242 79.0164C165.515 78.3152 165.769 77.6385 166.003 76.9864C166.232 76.2904 166.508 75.6111 166.831 74.9486C166.887 74.6744 166.971 74.4415 167.082 74.25C167.232 74.0092 167.335 73.7518 167.391 73.4775C167.448 73.2033 167.422 72.9835 167.313 72.8181C167.243 72.6035 167.217 72.3837 167.234 72.1587C167.247 71.8897 167.331 71.6568 167.486 71.4601C167.679 71.2141 167.76 70.9592 167.729 70.6955C167.907 70.3176 168.066 69.9644 168.205 69.6357C168.388 69.3019 168.569 68.946 168.747 68.5682C168.919 68.1464 169.017 67.8449 169.04 67.6639C169.102 67.4336 169.186 67.2007 169.291 66.9652C169.436 66.6805 169.52 66.4476 169.543 66.2666C169.633 65.8992 169.725 65.5538 169.821 65.2304C169.916 64.907 170.06 64.6223 170.254 64.3763C170.29 63.9262 170.38 63.5589 170.524 63.2742C170.707 62.9403 170.89 62.6064 171.074 62.2725C171.181 61.6801 171.338 61.1264 171.545 60.6115C171.79 60.0473 171.991 59.4884 172.148 58.9347C172.31 58.425 172.435 57.786 172.521 57.0178C172.652 56.2443 172.799 55.6027 172.961 55.093C173.412 54.0139 173.82 52.94 174.183 51.8714C174.541 50.7588 174.923 49.6655 175.331 48.5917C174.715 48.6649 174.058 48.7653 173.36 48.893C172.657 48.9767 172.036 49.006 171.498 48.9808C171.278 49.007 171.13 49.0692 171.052 49.1676C171.014 49.2168 170.86 49.2351 170.591 49.2225C170.415 49.2435 170.236 49.2424 170.055 49.2194C169.874 49.1963 169.674 49.1979 169.454 49.224C169.097 49.2219 168.665 49.3402 168.159 49.5788C167.691 49.7682 167.264 49.9304 166.879 50.0654C166.318 50.2214 165.985 50.4171 165.879 50.6526C165.812 50.8389 165.564 51.0021 165.135 51.1424C164.926 51.2564 164.686 51.3072 164.417 51.2946C164.192 51.2768 163.98 51.3689 163.781 51.5709C163.287 51.5405 162.822 51.373 162.384 51.0684C161.985 50.7146 161.628 50.3336 161.312 49.9254C161.203 49.76 161.063 49.7098 160.893 49.7747C160.722 49.8395 160.602 49.7647 160.532 49.5501C160.402 49.2089 160.36 48.8572 160.406 48.4951C160.434 48.358 160.487 48.2402 160.565 48.1418C160.642 48.0434 160.673 47.9283 160.657 47.7964C160.999 47.6667 161.298 47.5641 161.557 47.4888C161.859 47.4082 162.108 47.2449 162.301 46.9989C163.033 46.7781 163.611 46.5756 164.035 46.3914C164.502 46.202 165.1 45.9749 165.826 45.7102C166.239 45.438 166.449 45.324 166.454 45.3679C166.498 45.3627 166.564 45.3549 166.652 45.3444C167.081 45.2042 167.573 45.0341 168.129 44.8342C168.685 44.6343 169.263 44.4318 169.863 44.2267C170.468 44.0656 170.946 43.9641 171.298 43.9222C171.688 43.8312 172.237 43.7658 172.946 43.726C173.743 43.6758 174.531 43.5597 175.312 43.3776C176.088 43.1516 176.822 42.9528 177.515 42.7811C177.812 42.6566 178.049 42.5839 178.225 42.563C178.395 42.4981 178.544 42.4358 178.67 42.3761C178.929 42.3008 179.168 42.25 179.388 42.2239C179.608 42.1977 179.773 42.0889 179.884 41.8974C180.698 41.6221 181.449 41.3767 182.137 41.1611C182.825 40.9456 183.493 40.7546 184.142 40.5882C184.786 40.3778 185.429 40.1675 186.073 39.9572C186.761 39.7416 187.536 39.5155 188.4 39.279C189.137 39.1022 189.698 38.9463 190.083 38.8113C190.463 38.6323 191.098 38.5345 191.988 38.5178C192.256 38.5303 192.523 38.5209 192.787 38.4896C193.05 38.4582 193.361 38.4435 193.718 38.4456C193.943 38.4635 194.239 38.5174 194.606 38.6074C195.012 38.6483 195.361 38.5844 195.653 38.4159L196.065 38.5007ZM203.459 82.0926C203.608 81.8519 203.722 81.6823 203.8 81.5839C203.872 81.4416 203.991 81.316 204.156 81.2071C204.385 80.5111 204.652 79.9444 204.957 79.5069C205.3 79.0202 205.649 78.5775 206.002 78.1787C206.351 77.736 206.727 77.3346 207.13 76.9745C207.571 76.5653 208.049 76.0849 208.563 75.5333C208.783 75.5072 208.951 75.4203 209.067 75.2728C209.222 75.076 209.404 74.9206 209.614 74.8065C209.89 74.5061 210.108 74.2795 210.268 74.1267C210.472 73.9687 210.627 73.7719 210.733 73.5364C211.229 73.2099 211.652 72.8252 212 72.3825C212.393 71.9346 212.81 71.506 213.252 71.0967C213.637 70.9617 214.016 70.9612 214.388 71.0952C214.606 71.426 214.716 71.7918 214.719 72.1927C214.723 72.5936 214.529 72.8395 214.139 72.9306C214.022 73.0781 213.884 73.2283 213.724 73.3811C213.608 73.5287 213.442 73.6376 213.228 73.7077C212.969 73.783 212.779 73.8725 212.658 73.9761C212.575 74.0305 212.5 74.1509 212.433 74.3372C212.442 74.782 212.407 75.0537 212.33 75.152C212.291 75.2012 212.255 75.2724 212.221 75.3656C212.01 75.8366 211.771 76.2662 211.505 76.6545C211.278 76.9936 211.051 77.3327 210.824 77.6718C210.592 77.967 210.364 78.3061 210.143 78.6892C209.915 79.0283 209.677 79.4579 209.427 79.9781C209.184 80.1853 209.015 80.4507 208.919 80.7741C208.18 81.3078 207.629 81.7301 207.265 82.041C206.939 82.3026 206.643 82.6276 206.377 83.0159C206.135 83.2232 206.018 83.3707 206.029 83.4586C206.039 83.5466 206.006 83.6397 205.928 83.7381C205.531 84.1421 205.301 84.4592 205.239 84.6895C205.216 84.8706 205.144 85.0129 205.022 85.1165C204.619 85.4766 204.324 85.8015 204.135 86.0915C203.942 86.3374 203.677 86.5473 203.341 86.721C203.103 86.9722 202.761 87.2804 202.314 87.6457C201.867 88.0109 201.373 88.3595 200.833 88.6912C200.293 89.023 199.743 89.2668 199.182 89.4228C198.67 89.6174 198.206 89.6504 197.789 89.5216C197.598 89.4106 197.428 89.2971 197.28 89.1809C197.138 89.1086 196.974 89.039 196.787 88.972C196.438 88.657 196.074 88.4105 195.696 88.2325C195.357 88.0054 195.032 87.7096 194.721 87.3454C194.361 86.9424 194.087 86.507 193.897 86.0391C193.746 85.522 193.532 85.0348 193.255 84.5774C193.148 84.0551 193.088 83.5495 193.075 83.0607C193.056 82.528 193.091 82.0779 193.182 81.7105C193.487 80.1583 193.904 78.7935 194.433 77.616C195.006 76.4333 195.34 75.1229 195.436 73.6847C194.895 73.2587 194.557 72.8531 194.422 72.4679C194.326 72.0335 194.146 71.4531 193.881 70.7267C192.827 71.6101 191.884 72.6808 191.053 73.9388C190.222 75.1969 189.503 76.4639 188.897 77.7397C188.652 78.3039 188.446 78.8188 188.278 79.2846C188.111 79.7503 187.894 80.1774 187.628 80.5657C187.435 80.8116 187.343 80.9786 187.354 81.0665C187.359 81.1105 187.323 81.1816 187.245 81.28C186.946 81.7615 186.763 82.0953 186.696 82.2817C186.629 82.468 186.559 82.6323 186.487 82.7746C186.415 82.917 186.32 83.0619 186.204 83.2095C186.088 83.3571 185.994 83.502 185.922 83.6444C185.411 84.5968 184.939 85.5001 184.505 86.3542C184.111 87.159 183.697 87.9885 183.263 88.8426C183.085 89.2204 182.932 89.6176 182.803 90.0342C182.674 90.4507 182.497 90.8286 182.269 91.1677C181.835 91.264 181.585 91.2268 181.52 91.0562C181.412 90.8908 181.393 90.7369 181.466 90.5946C181.181 90.4501 180.952 90.2099 180.778 89.8739C180.555 89.4992 180.417 89.092 180.365 88.6524C180.269 88.2181 180.217 87.7784 180.208 87.3336C180.2 86.8888 180.243 86.5046 180.339 86.1812C180.16 85.8013 180.089 85.5867 180.128 85.5375C180.167 85.4883 180.181 85.4198 180.171 85.3318C180.648 84.4725 181.147 83.6106 181.669 82.7461C182.146 81.8868 182.672 81.0662 183.248 80.2844C183.431 79.9505 183.592 79.6193 183.732 79.2906C183.915 78.9567 184.123 78.6422 184.355 78.3471C184.667 77.5966 185.028 76.8849 185.438 76.2119C185.893 75.5337 186.251 74.8 186.514 74.0108C186.708 73.7648 186.833 73.5048 186.889 73.2305C186.99 72.9511 187.162 72.7077 187.404 72.5005C187.649 71.9364 187.831 71.402 187.949 70.8975C188.068 70.3931 188.26 69.9467 188.525 69.5584C188.577 69.2402 188.658 68.9853 188.769 68.7938C188.88 68.6022 189.032 68.3835 189.226 68.1375C189.244 67.9125 189.333 67.7236 189.493 67.5708C189.692 67.3688 189.844 67.15 189.95 66.9145C190.001 66.5963 190.087 66.3854 190.209 66.2818C190.33 66.1782 190.378 66.0165 190.352 65.7967C190.545 65.5507 190.739 65.3048 190.933 65.0588C191.121 64.7689 191.282 64.4376 191.416 64.065C191.99 63.6401 192.387 63.4146 192.606 63.3884C192.87 63.357 193.055 63.2236 193.161 62.9881C193.512 62.9462 193.93 62.8965 194.413 62.839C194.892 62.7375 195.174 62.86 195.26 63.2064C195.314 63.2891 195.327 63.399 195.299 63.5361C195.271 63.6733 195.242 63.8104 195.214 63.9475C195.305 64.3379 195.331 64.5577 195.293 64.6069C195.249 64.6121 195.229 64.6367 195.234 64.6807C195.206 64.8178 195.202 64.9743 195.223 65.1501C195.288 65.3207 195.334 65.5159 195.36 65.7357C195.358 66.0927 195.348 66.3836 195.33 66.6087C195.307 66.7897 195.424 67.0211 195.68 67.3026C195.784 67.424 195.931 67.5402 196.123 67.6512C196.309 67.7182 196.479 67.8318 196.632 67.9919C196.779 68.1081 196.861 68.2321 196.876 68.364C196.936 68.4907 197.04 68.6121 197.187 68.7283C197.291 68.8497 197.436 68.9439 197.622 69.0109C197.809 69.0779 197.959 69.2161 198.073 69.4254C198.313 69.5751 198.393 69.6772 198.31 69.7316C198.271 69.7808 198.391 69.8556 198.671 69.9561C199.277 70.5528 199.732 71.1897 200.035 71.8669C200.362 72.363 200.656 72.7739 200.917 73.0994C201.179 73.4249 201.221 73.7766 201.043 74.1545C200.966 74.2529 200.891 74.3732 200.818 74.5156C200.79 74.6527 200.743 74.8144 200.676 75.0007C200.521 75.1975 200.371 75.4382 200.226 75.7229C200.159 75.9092 200.114 76.0929 200.091 76.2739C200.063 76.411 200.013 76.5508 199.941 76.6931C199.618 77.3556 199.269 77.9768 198.892 78.5567C198.559 79.1313 198.273 79.7226 198.033 80.3307C198.229 81.6004 198.58 82.4948 199.088 83.014C199.689 83.5666 200.055 83.8351 200.187 83.8194C200.456 83.832 200.753 83.7075 201.079 83.4458C201.404 83.1842 201.669 82.9743 201.873 82.8163C202.038 82.7074 202.182 82.6012 202.303 82.4976C202.425 82.394 202.571 82.3097 202.741 82.2448C203.204 82.0115 203.419 81.9413 203.385 82.0345C203.346 82.0837 203.371 82.1031 203.459 82.0926ZM219.515 66.4059C219.254 66.8381 218.991 67.2484 218.725 67.6367C218.459 68.025 218.147 68.3966 217.787 68.7514C217.581 69.2663 217.326 69.7426 217.021 70.1801C216.717 70.6176 216.409 71.0331 216.1 71.4266C215.966 71.7992 215.802 72.1085 215.608 72.3545C215.409 72.5565 215.191 72.783 214.953 73.0342C214.848 73.2697 214.698 73.5105 214.504 73.7564C214.355 73.9971 214.205 74.2379 214.055 74.4786C213.95 74.7141 213.868 74.969 213.812 75.2432C213.755 75.5174 213.811 75.8005 213.98 76.0926C214.474 76.123 214.95 75.9995 215.407 75.7221C215.864 75.4448 216.258 75.1973 216.589 74.9796C216.915 74.7179 217.246 74.5002 217.582 74.3265C217.956 74.1036 218.284 73.8639 218.566 73.6075L220.076 71.689C220.353 71.3886 220.583 71.0715 220.766 70.7376C220.949 70.4037 221.151 70.0453 221.373 69.6622C221.409 69.2121 221.532 68.7516 221.744 68.2806C221.95 67.7656 222.005 67.291 221.909 66.8566C221.834 66.5981 221.719 66.3887 221.567 66.2286C221.453 66.0192 221.36 65.8073 221.29 65.5927C220.851 65.645 220.51 65.7748 220.267 65.982C220.063 66.1401 219.812 66.2813 219.515 66.4059ZM209.4 71.8894C209.483 71.835 209.638 71.6382 209.865 71.2991C210.131 70.9108 210.416 70.4979 210.721 70.0604C211.02 69.5789 211.305 69.166 211.576 68.8217C211.842 68.4334 212.039 68.2094 212.165 68.1498C212.271 67.9143 212.36 67.7253 212.432 67.583C212.543 67.3915 212.701 67.2167 212.905 67.0586C213.178 66.3574 213.577 65.7749 214.101 65.3113C214.62 64.8037 215.11 64.2327 215.569 63.5985C216.363 63.1474 217.146 62.6084 217.918 61.9815C218.729 61.3054 219.66 60.8826 220.71 60.7131C221.219 60.8753 221.689 60.8863 222.118 60.7461C222.591 60.6007 223.044 60.6582 223.476 60.9189C223.743 61.2884 223.972 61.5286 224.164 61.6396C224.35 61.7066 224.495 61.8008 224.599 61.9222C224.842 62.4728 225.019 62.8307 225.128 62.9961C225.231 63.1175 225.318 63.2855 225.388 63.5001C225.511 64.1543 225.612 64.6326 225.693 64.9351C225.768 65.1936 225.799 65.4574 225.787 65.7264C225.796 66.929 225.71 68.0762 225.528 69.1679C225.471 69.4421 225.417 69.7383 225.366 70.0565C225.309 70.3307 225.228 70.5856 225.122 70.8211C224.862 71.2533 224.662 71.6338 224.523 71.9624C224.422 72.2419 224.316 72.4774 224.205 72.6689C223.741 73.2592 223.331 73.7538 222.978 74.1525C222.608 74.4194 222.241 74.7083 221.877 75.0191C221.513 75.33 221.094 75.5581 220.621 75.7036C220.417 75.8616 220.235 76.017 220.075 76.1698C219.909 76.2787 219.697 76.3708 219.439 76.4461C219.036 76.8062 218.625 77.1002 218.206 77.3284C217.782 77.5126 217.342 77.7434 216.884 78.0207C216.631 78.14 216.363 78.3279 216.082 78.5843C215.8 78.8407 215.514 79.0532 215.222 79.2217C214.968 79.341 214.649 79.4681 214.264 79.6031C213.917 79.6889 213.639 79.7889 213.43 79.903C213.707 80.3604 213.861 80.8994 213.89 81.5201C213.919 82.1408 214.095 82.6772 214.416 83.1294C215.003 83.1933 215.632 83.2299 216.301 83.2394C217.01 83.1997 217.667 83.0992 218.272 82.9381C218.486 82.868 218.72 82.7732 218.974 82.6539C219.222 82.4907 219.475 82.3714 219.734 82.296C220.207 82.1506 220.655 81.9857 221.079 81.8015C221.547 81.6121 221.944 81.3866 222.269 81.1249C223.492 80.5336 224.652 79.7937 225.75 78.9051C226.848 78.0165 227.784 77.0803 228.559 76.0965C229.045 75.682 229.559 75.1305 230.101 74.4418C230.687 73.7479 231.125 73.1162 231.413 72.5469C231.989 71.765 232.495 71.1475 232.932 70.6943C233.412 70.2359 233.875 70.0025 234.32 69.9942C234.671 69.9523 235.027 70.1329 235.387 70.5359C235.786 70.8897 235.816 71.3319 235.478 71.8626C235.07 72.1786 234.656 72.6292 234.235 73.2143C233.814 73.7993 233.353 74.2332 232.851 74.5157C232.487 74.8266 232.039 75.3703 231.507 76.1469C231.02 76.9183 230.599 77.5033 230.245 77.9021C230.09 78.0989 229.875 78.3475 229.598 78.6478C229.361 78.899 229.167 79.145 229.017 79.3857C228.465 79.9865 227.863 80.5485 227.212 81.0718C226.937 81.0153 226.745 81.0828 226.634 81.2743C226.523 81.4658 226.368 81.6626 226.169 81.8646C226.048 81.9682 225.904 82.0745 225.739 82.1833C225.617 82.2869 225.496 82.3905 225.375 82.4941C225.06 82.8437 224.701 83.1985 224.298 83.5586C223.938 83.9134 223.552 84.2268 223.139 84.4989C222.322 85.1311 221.495 85.6753 220.658 86.1316C219.826 86.6319 219.026 87.2174 218.259 87.8883C218 87.9637 217.761 88.0144 217.542 88.0406C217.327 88.1107 217.112 88.1808 216.898 88.2509C216.644 88.3702 216.408 88.443 216.188 88.4691C216.012 88.49 215.743 88.4775 215.381 88.4314C214.564 88.3057 213.873 88.1204 213.309 87.8755C212.745 87.6305 212.165 87.2537 211.569 86.745C211.274 86.5126 210.96 86.3048 210.626 86.1216C210.292 85.9385 210.021 85.7254 209.814 85.4826C209.656 85.2785 209.46 84.9451 209.227 84.4825C208.994 84.0198 208.78 83.5326 208.585 83.0208C208.385 82.465 208.21 81.9285 208.059 81.4115C207.908 80.8944 207.817 80.504 207.786 80.2402C207.853 80.0539 207.926 79.7331 208.006 79.2778C208.041 78.8277 208.096 78.3531 208.171 77.8538C208.196 77.3158 208.226 76.8218 208.262 76.3717C208.253 75.9269 208.239 75.6165 208.218 75.4407C208.257 75.3915 208.346 75.2026 208.485 74.8739C208.619 74.5013 208.772 74.1041 208.945 73.6823C209.074 73.2658 209.186 72.8958 209.281 72.5723C209.371 72.205 209.411 71.9773 209.4 71.8894ZM238.184 67.06C238.476 66.8915 238.784 66.6764 239.11 66.4148C239.43 66.1092 239.709 65.8308 239.947 65.5796C240.427 65.1212 240.864 64.668 241.256 64.22C241.649 63.7721 242.085 63.3189 242.566 62.8605C242.847 62.6041 243.088 62.3748 243.286 62.1728C243.524 61.9217 243.742 61.6951 243.941 61.4931C244.145 61.335 244.327 61.1796 244.488 61.0268C244.692 60.8688 244.896 60.7107 245.1 60.5527C245.684 60.2157 246.185 59.9331 246.604 59.705C246.731 59.6453 246.855 59.5637 246.976 59.4601C247.136 59.3073 247.304 59.2204 247.48 59.1995C247.827 59.1137 248.145 59.165 248.435 59.3534C248.719 59.4978 248.977 59.6009 249.207 59.6627C249.629 59.8354 250.026 59.9888 250.399 60.1228C250.815 60.2516 251.196 60.4515 251.54 60.7226C251.807 61.0921 252.093 61.437 252.399 61.7573C252.748 62.0724 253.043 62.4832 253.281 62.9898C253.341 63.1164 253.384 63.2897 253.41 63.5095C253.436 63.7293 253.462 63.9491 253.488 64.1689C253.569 64.4714 253.671 64.7713 253.796 65.0685C253.964 65.3606 254.089 65.6578 254.17 65.9603C254.294 66.2576 254.355 66.5847 254.353 66.9416C254.39 67.2493 254.317 67.5701 254.133 67.904C252.947 68.803 251.682 69.6 250.339 70.2949C250.018 70.6005 249.673 70.8868 249.304 71.1537C248.973 71.3713 248.645 71.611 248.319 71.8727C248.025 72.3981 247.633 72.846 247.142 73.2165C246.695 73.5818 246.319 73.9832 246.014 74.4207C246.258 74.9712 246.536 75.4287 246.847 75.7929C247.157 76.1572 247.51 76.4942 247.903 76.8041C248.061 77.0082 248.239 77.1877 248.435 77.3426C248.671 77.4483 248.904 77.5321 249.134 77.5938C249.364 77.6556 249.726 77.7017 250.22 77.7321C250.709 77.7185 251.061 77.6766 251.275 77.6065C251.529 77.4872 251.826 77.3627 252.167 77.2329C252.503 77.0592 252.817 76.8881 253.109 76.7196C253.719 76.6024 254.136 76.3522 254.357 75.9692C254.618 75.5369 254.909 75.168 255.229 74.8624C255.428 74.6604 255.632 74.5023 255.841 74.3882C256.045 74.2302 256.242 74.0062 256.43 73.7163C256.52 73.3489 256.684 73.0396 256.921 72.7885C257.425 72.149 257.905 71.6905 258.363 71.4132C258.618 70.937 258.982 70.6261 259.456 70.4807C259.929 70.3352 260.325 70.1097 260.646 69.8041L261.49 69.0348C261.772 68.7784 262.032 68.5246 262.269 68.2734C262.507 68.0222 262.766 67.7684 263.048 67.512C263.291 67.3047 263.517 67.1441 263.726 67.03C263.974 66.8667 264.151 66.6674 264.257 66.4319C264.422 66.323 264.568 66.2388 264.695 66.1791C264.822 66.1195 264.948 66.0598 265.075 66.0002C265.331 66.2817 265.489 66.4858 265.549 66.6125C265.647 66.6899 265.704 66.7946 265.72 66.9265C265.702 67.1515 265.633 67.3159 265.511 67.4195C265.385 67.4791 265.312 67.6215 265.295 67.8465C264.848 68.2118 264.381 68.6016 263.896 69.0161C263.449 69.3814 263.029 69.788 262.636 70.2359C262.619 70.461 262.574 70.6446 262.501 70.787C262.468 70.8801 262.418 71.0199 262.351 71.2062C261.788 71.719 261.274 72.2706 260.809 72.8609C260.344 73.4512 259.833 74.0247 259.275 74.5815C259.071 74.7396 258.869 74.9196 258.67 75.1216C258.515 75.3184 258.314 75.4984 258.066 75.6616C257.48 76.3556 256.893 77.0495 256.307 77.7434C255.716 78.3933 255.075 79.0046 254.386 79.5771C254.181 79.7351 253.98 79.9151 253.781 80.1171C253.577 80.2752 253.326 80.4164 253.029 80.541C252.791 80.7922 252.521 80.9581 252.219 81.0386C251.96 81.114 251.707 81.2333 251.459 81.3966C250.958 81.6791 250.522 81.9539 250.153 82.2207C249.832 82.5264 249.414 82.7545 248.897 82.9052C248.643 83.0245 248.379 83.0559 248.105 82.9994C247.875 82.9376 247.587 82.9496 247.24 83.0354C246.912 82.8962 246.591 82.8229 246.278 82.8156C246.218 82.6889 246.011 82.4461 245.656 82.087C245.34 81.6788 245.133 81.436 245.034 81.3585C244.791 80.808 244.568 80.4332 244.366 80.2344C244.158 79.9915 243.951 79.7487 243.744 79.5058C243.482 79.1803 243.284 78.8249 243.149 78.4398C243.053 78.0054 242.874 77.6254 242.612 77.2999C242.63 77.0749 242.568 76.9262 242.425 76.854C242.322 76.7326 242.281 76.5813 242.304 76.4003C241.73 76.0674 241.369 75.8429 241.221 75.7267C241.112 75.5613 241.003 75.3959 240.895 75.2305C240.837 74.747 240.803 74.4612 240.793 74.3733C240.782 74.2854 240.816 74.1922 240.893 74.0938C241.125 73.7987 241.385 73.5449 241.672 73.3324C241.997 73.0708 242.254 72.795 242.443 72.5051C242.657 72.435 242.823 72.3261 242.939 72.1785C243.099 72.0257 243.259 71.8729 243.419 71.7201C243.905 71.3057 244.371 70.9158 244.818 70.5505C245.26 70.1413 245.768 69.7242 246.341 69.2993C246.755 69.0272 246.974 68.6221 246.999 68.0842C247.068 67.5409 247.118 67.0223 247.148 66.5283C246.832 66.1201 246.608 65.9238 246.477 65.9395C246.389 65.9499 246.295 65.9164 246.197 65.839C246.055 65.7668 245.932 65.6699 245.828 65.5485C245.719 65.3831 245.577 65.3109 245.401 65.3318C245.274 65.3915 245.109 65.5003 244.905 65.6584C244.701 65.8164 244.538 65.9472 244.417 66.0508C243.722 66.5794 243.021 67.0639 242.316 67.5046C241.605 67.9012 240.924 68.3612 240.273 68.8845C239.942 69.1022 239.59 69.3225 239.215 69.5454C238.884 69.7631 238.617 69.951 238.413 70.109C238.33 70.1634 238.231 70.2644 238.114 70.412C238.037 70.5104 237.959 70.6088 237.882 70.7072C237.619 71.4963 237.399 72.0798 237.221 72.4577C237.082 72.7863 236.948 73.1589 236.819 73.5755C236.791 73.7126 236.74 73.8524 236.668 73.9947C236.635 74.0878 236.579 74.1836 236.502 74.282C236.324 74.6598 236.19 75.0325 236.1 75.3998C236.01 75.7672 235.851 76.1205 235.624 76.4596C235.599 76.9976 235.491 77.59 235.3 78.2368C235.149 78.8344 235.019 79.4295 234.911 80.0219C234.842 80.5651 234.724 81.0696 234.556 81.5354C234.433 81.9959 234.115 82.3235 233.603 82.5181C233.425 82.896 233.325 83.1754 233.302 83.3565C233.322 83.5324 233.244 83.8092 233.066 84.187C232.901 84.2959 232.73 84.3608 232.554 84.3817C232.428 84.4413 232.262 84.5502 232.058 84.7082C232.014 84.7135 231.912 84.7925 231.752 84.9453C231.592 85.0981 231.432 85.2509 231.271 85.4037C231.067 85.5617 230.885 85.7172 230.725 85.87C230.565 86.0228 230.463 86.1018 230.419 86.107C230.078 86.2368 229.855 86.241 229.752 86.1195C229.609 86.0473 229.455 86.0656 229.29 86.1745C228.963 85.6783 228.704 85.3748 228.513 85.2638C228.559 84.9017 228.61 84.5835 228.667 84.3093C228.674 83.9963 228.753 83.7195 228.902 83.4787C229.013 83.2872 229.144 83.0711 229.293 82.8303C229.438 82.5457 229.563 82.2856 229.669 82.0501C229.736 81.8638 229.761 81.7047 229.746 81.5728C229.681 81.4022 229.682 81.2237 229.749 81.0374C229.811 80.8071 229.916 80.5716 230.066 80.3309C230.166 80.0515 230.27 79.794 230.375 79.5585C230.499 79.098 230.647 78.6568 230.82 78.235C230.948 77.8184 231.072 77.3579 231.19 76.8534C231.265 76.3541 231.32 75.8795 231.355 75.4294C231.386 74.9354 231.482 74.4335 231.644 73.9238C231.806 73.414 231.966 72.8823 232.123 72.3287C232.275 71.731 232.366 71.1852 232.396 70.6912C232.414 70.4661 232.459 70.2824 232.531 70.1401C232.604 69.9977 232.671 69.8114 232.732 69.5812C232.794 69.3509 232.853 69.0987 232.91 68.8244C233.005 68.501 233.103 68.1996 233.204 67.9201C233.392 67.6302 233.478 67.4193 233.463 67.2874C233.491 67.1503 233.544 67.0326 233.621 66.9342C233.693 66.7918 233.724 66.6767 233.714 66.5888C233.742 66.4517 233.795 66.3339 233.872 66.2355C233.934 66.0053 234.018 65.7724 234.124 65.5369C234.229 65.3014 234.313 65.0685 234.375 64.8382C234.486 64.6467 234.562 64.3479 234.603 63.9418C234.68 63.8434 234.733 63.7256 234.761 63.5885C234.833 63.4462 234.864 63.3311 234.854 63.2431C234.928 62.7439 234.961 62.2718 234.953 61.827C234.988 61.3769 235.109 60.8944 235.316 60.3795C235.418 59.7431 235.476 59.2904 235.488 59.0214C235.54 58.7032 235.693 58.306 235.948 57.8298C236.038 57.4624 236.15 57.0924 236.284 56.7198C236.413 56.3032 236.523 55.9113 236.613 55.5439C236.703 55.1765 236.795 54.8311 236.891 54.5077C236.981 54.1403 237.046 53.7536 237.087 53.3475C237.321 52.6954 237.506 52.183 237.64 51.8104C237.768 51.3939 237.919 50.9747 238.092 50.5529C238.36 49.8077 238.539 49.2514 238.629 48.884C238.758 48.4674 238.914 48.0922 239.097 47.7583C239.187 47.3909 239.238 47.0727 239.251 46.8037C239.302 46.4856 239.378 46.1867 239.478 45.9073C239.811 45.3327 240.003 44.8863 240.055 44.5681C240.106 44.2499 240.182 43.9511 240.282 43.6716C240.602 42.6082 240.984 41.515 241.43 40.3919C241.876 39.2689 242.448 38.2646 243.145 37.3792C243.339 37.1332 243.532 36.8872 243.726 36.6413C243.963 36.3901 244.152 36.1002 244.291 35.7715C244.601 35.378 244.919 35.0504 245.244 34.7887C245.564 34.4831 245.86 34.1582 246.131 33.8138C246.718 33.8777 247.061 33.9484 247.16 34.0258C247.297 34.0541 247.409 34.063 247.497 34.0525C247.754 34.3341 247.96 34.7554 248.116 35.3164C248.31 35.8283 248.414 36.3286 248.428 36.8174C248.465 37.1251 248.435 37.4407 248.34 37.7641C248.245 38.0875 248.216 38.4031 248.252 38.7108C248.229 38.8919 248.225 39.0484 248.241 39.1802C248.301 39.3069 248.27 39.422 248.148 39.5256C248.118 40.0197 248.041 40.497 247.918 40.9575C247.789 41.3741 247.66 41.7906 247.531 42.2072C247.06 43.8682 246.516 45.2927 245.9 46.4807C245.327 47.6634 244.792 48.9754 244.295 50.4166C244.045 50.9368 243.817 51.4544 243.61 51.9693C243.443 52.4351 243.286 52.9888 243.139 53.6304C242.938 54.1893 242.715 54.7508 242.47 55.315C242.225 55.8791 241.909 56.4072 241.522 56.8991C241.316 57.414 241.132 57.9264 240.969 58.4361C240.846 58.8966 240.634 59.3676 240.335 59.8491C240.284 60.1672 240.208 60.4661 240.107 60.7455C240.002 60.981 239.854 61.2437 239.666 61.5337C239.532 61.9063 239.393 62.2349 239.248 62.5196C239.148 62.7991 239.077 63.1418 239.036 63.5479C238.885 64.1456 238.713 64.7678 238.523 65.4147C238.371 66.0123 238.258 66.5608 238.184 67.06Z"
        fill="#00CF08" />
</svg>